HIERARCHY
ROOT Hips
{
	OFFSET 0.000000 0.000000 0.000000
	CHANNELS 6 Xposition Yposition Zposition Zrotation Yrotation Xrotation 
	JOINT LHipJoint
	{
		OFFSET 0.000000 0.000000 0.000000
		CHANNELS 3 Zrotation Yrotation Xrotation
		JOINT LeftUpLeg
		{
			OFFSET 1.363060 -1.794630 0.839290
			CHANNELS 3 Zrotation Yrotation Xrotation
			JOINT LeftLeg
			{
				OFFSET 2.448110 -6.726130 0.000000
				CHANNELS 3 Zrotation Yrotation Xrotation
				JOINT LeftFoot
				{
					OFFSET 2.562200 -7.039590 0.000000
					CHANNELS 3 Zrotation Yrotation Xrotation
					JOINT LeftToeBase
					{
						OFFSET 0.157640 -0.433110 2.322550
						CHANNELS 3 Zrotation Yrotation Xrotation
						End Site
						{
							OFFSET 0.000000 0.000000 0.000000
						}
					}
				}
			}
		}
	}
	JOINT RHipJoint
	{
		OFFSET 0.000000 0.000000 0.000000
		CHANNELS 3 Zrotation Yrotation Xrotation
		JOINT RightUpLeg
		{
			OFFSET -1.305520 -1.794630 0.839290
			CHANNELS 3 Zrotation Yrotation Xrotation
			JOINT RightLeg
			{
				OFFSET -2.542530 -6.985550 0.000000
				CHANNELS 3 Zrotation Yrotation Xrotation
				JOINT RightFoot
				{
					OFFSET -2.568260 -7.056230 0.000000
					CHANNELS 3 Zrotation Yrotation Xrotation
					JOINT RightToeBase
					{
						OFFSET -0.164730 -0.452590 2.363150
						CHANNELS 3 Zrotation Yrotation Xrotation
						End Site
						{
							OFFSET 0.000000 0.000000 0.000000
						}
					}
				}
			}
		}
	}
	JOINT LowerBack
	{
		OFFSET 0.000000 0.000000 0.000000
		CHANNELS 3 Zrotation Yrotation Xrotation
		JOINT Spine
		{
			OFFSET 0.028270 2.035590 -0.193380
			CHANNELS 3 Zrotation Yrotation Xrotation
			JOINT Spine1
			{
				OFFSET 0.056720 2.048850 -0.042750
				CHANNELS 3 Zrotation Yrotation Xrotation
				JOINT Neck
				{
					OFFSET 0.000000 0.000000 0.000000
					CHANNELS 3 Zrotation Yrotation Xrotation
					JOINT Neck1
					{
						OFFSET -0.054170 1.746240 0.172020
						CHANNELS 3 Zrotation Yrotation Xrotation
						JOINT Head
						{
							OFFSET 0.104070 1.761360 -0.123970
							CHANNELS 3 Zrotation Yrotation Xrotation
							End Site
							{
								OFFSET 0.000000 0.000000 0.000000
							}
						}
					}
				}
				JOINT LeftShoulder
				{
					OFFSET 0.000000 0.000000 0.000000
					CHANNELS 3 Zrotation Yrotation Xrotation
					JOINT LeftArm
					{
						OFFSET 3.362410 1.200890 -0.311210
						CHANNELS 3 Zrotation Yrotation Xrotation
						JOINT LeftForeArm
						{
							OFFSET 4.983000 -0.000000 -0.000000
							CHANNELS 3 Zrotation Yrotation Xrotation
							JOINT LeftHand
							{
								OFFSET 3.483560 -0.000000 -0.000000
								CHANNELS 3 Zrotation Yrotation Xrotation
								JOINT LeftFingerBase
								{
									OFFSET 0.000000 0.000000 0.000000
									CHANNELS 3 Zrotation Yrotation Xrotation
									JOINT LeftHandIndex1
									{
										OFFSET 0.715260 -0.000000 -0.000000
										CHANNELS 3 Zrotation Yrotation Xrotation
										End Site
										{
											OFFSET 0.000000 0.000000 0.000000
										}
									}
								}
								JOINT LThumb
								{
									OFFSET 0.000000 0.000000 0.000000
									CHANNELS 3 Zrotation Yrotation Xrotation
									End Site
									{
										OFFSET 0.000000 0.000000 0.000000
									}
								}
							}
						}
					}
				}
				JOINT RightShoulder
				{
					OFFSET 0.000000 0.000000 0.000000
					CHANNELS 3 Zrotation Yrotation Xrotation
					JOINT RightArm
					{
						OFFSET -3.136600 1.374050 -0.404650
						CHANNELS 3 Zrotation Yrotation Xrotation
						JOINT RightForeArm
						{
							OFFSET -5.241900 -0.000000 -0.000000
							CHANNELS 3 Zrotation Yrotation Xrotation
							JOINT RightHand
							{
								OFFSET -3.444170 -0.000000 -0.000000
								CHANNELS 3 Zrotation Yrotation Xrotation
								JOINT RightFingerBase
								{
									OFFSET 0.000000 0.000000 0.000000
									CHANNELS 3 Zrotation Yrotation Xrotation
									JOINT RightHandIndex1
									{
										OFFSET -0.622530 -0.000000 -0.000000
										CHANNELS 3 Zrotation Yrotation Xrotation
										End Site
										{
											OFFSET 0.000000 0.000000 0.000000
										}
									}
								}
								JOINT RThumb
								{
									OFFSET 0.000000 0.000000 0.000000
									CHANNELS 3 Zrotation Yrotation Xrotation
									End Site
									{
										OFFSET 0.000000 0.000000 0.000000
									}
								}
							}
						}
					}
				}
			}
		}
	}
}
MOTION
Frames: 9
Frame Time: 0.008333
5.883435 17.502362 1.865846 137.890132 -81.116934 -132.681356 -8.316268 -2.776075 2.715972 -22.977136 2.308340 -0.653297 0.328487 6.617757 16.871927 3.811692 -11.536598 3.691793 6.929100 15.271900 48.605500 7.614187 4.249349 -2.578808 4.659833 9.126402 -29.685338 -0.244082 -6.943171 18.229756 2.697603 -12.111054 -0.337032 -0.026600 -1.052600 2.893600 -7.486558 -5.103330 2.440268 -0.905356 -7.214550 -1.913717 3.654123 -3.576687 3.202702 -8.610300 -3.943106 -1.702986 6.718079 -6.943641 -16.307864 1.799100 -4.401400 -3.545000 -8.497003 -4.972637 -0.165719 -70.519437 -17.891636 22.918198 17.223779 -28.967499 -6.585491 -0.991018 -2.595936 -6.001011 17.281362 41.605972 13.065300 -7.125000 0.000000 0.000000 -32.779400 73.106100 -22.472400 13.062185 3.704687 -1.927931 71.551760 -6.999010 11.855905 -8.235765 14.683430 -2.278713 0.632726 -3.251640 7.230348 -22.734590 30.346508 -13.676100 7.125000 0.000000 0.000000 4.718300 5.758500 5.184700 
5.722872 17.482607 1.851249 138.252772 -81.511276 -133.011685 -8.274752 -2.713249 2.767386 -22.673388 2.327865 -0.098293 0.324474 6.609369 16.820100 3.806255 -11.506049 3.709872 6.876800 15.227300 48.406900 7.650509 4.260773 -2.583765 5.143223 8.932996 -29.709814 -0.219709 -6.895289 18.079237 2.727925 -12.237147 -0.285278 -0.013100 -0.739300 2.031800 -7.115679 -5.098789 2.389734 -0.871590 -7.201795 -1.899528 3.604185 -3.564441 3.234066 -8.672174 -3.986944 -1.656542 6.753189 -6.981103 -16.166446 1.821600 -4.407400 -3.506000 -8.500060 -4.992484 -0.167547 -70.563432 -18.202499 23.333205 17.520179 -29.248814 -6.714989 -0.968571 -2.575213 -5.870088 16.678544 41.325086 12.541600 -7.125000 0.000000 0.000000 -32.881800 72.663500 -22.243700 13.117981 3.735208 -1.851828 71.694373 -6.299425 7.849616 -7.384268 13.491376 -2.063170 0.412140 -3.449871 11.129125 -23.019089 30.904898 -14.127400 7.125000 0.000000 0.000000 4.664900 6.563800 5.183900 
5.563077 17.469437 1.829958 140.230557 -81.903470 -135.000815 -8.226148 -2.670904 2.809491 -22.177574 2.472843 0.351919 0.339446 6.672975 16.981418 3.803160 -11.454610 3.665205 6.863700 15.216000 48.357000 7.694129 4.249673 -2.574273 5.907392 8.885817 -29.630783 -0.231853 -6.937548 18.179635 2.695332 -12.193098 0.002926 -0.006900 -0.537700 1.477500 -6.701482 -5.093326 2.421560 -0.786249 -7.188016 -1.872915 3.641414 -3.559234 3.271133 -8.862127 -4.137444 -1.626957 6.889396 -7.169301 -16.299606 1.913200 -4.503000 -3.532200 -8.490127 -5.005059 -0.168961 -70.574027 -18.519214 23.575575 17.780944 -29.491445 -6.830788 -0.939388 -2.555574 -5.859010 15.960165 40.919552 11.912600 -7.125000 0.000000 0.000000 -32.872000 72.086000 -21.839100 13.154286 3.747770 -1.813006 71.599510 -5.983874 6.162312 -6.959038 12.900471 -1.955914 0.319342 -3.529704 12.938360 -23.198786 30.973939 -14.307500 7.125000 0.000000 0.000000 4.571400 6.745700 5.092200 
5.401197 17.454621 1.804935 143.406433 -82.398224 -138.286924 -8.164994 -2.629847 2.853071 -21.477122 2.638534 0.859240 0.373923 6.802111 17.328768 3.813207 -11.440950 3.534892 6.867400 15.219200 48.371100 7.737952 4.216564 -2.543741 6.894760 8.922308 -29.410081 -0.278655 -7.070845 18.536785 2.583685 -11.889713 0.351266 -0.012200 -0.713000 1.959400 -6.234880 -5.127979 2.670521 -0.632709 -7.241489 -1.866662 3.813455 -3.586074 3.159556 -8.850686 -4.139038 -1.798658 6.678275 -7.180090 -16.100279 1.812600 -4.498400 -3.447900 -8.458200 -5.017554 -0.167821 -70.610255 -18.727235 23.691989 17.987902 -29.694854 -6.939290 -0.927450 -2.550858 -5.918628 15.698377 40.905512 11.714900 -7.125000 0.000000 0.000000 -33.149100 71.980200 -21.960900 13.204710 3.750267 -1.793375 71.253481 -5.940188 6.072167 -6.749507 12.631105 -1.892079 0.304229 -3.522837 13.241924 -22.980406 30.618105 -14.042000 7.125000 0.000000 0.000000 4.625900 6.321900 5.123100 
5.243268 17.428281 1.809215 139.550968 -82.163747 -134.126915 -8.157005 -2.622076 2.846555 -22.203159 2.545673 0.896600 0.429374 6.969994 17.782860 3.788582 -11.342489 3.174650 6.701800 15.075500 47.737200 7.637240 4.307565 -2.516778 6.852403 7.545600 -30.136536 -0.388919 -7.234699 19.151221 1.997146 -9.804857 1.050977 -0.060700 -1.589400 4.372200 -6.637797 -5.190760 2.535489 -0.685284 -7.343482 -2.002773 3.881188 -3.616995 2.927102 -8.768572 -4.130231 -1.603189 6.762047 -7.187020 -16.111284 1.825500 -4.509100 -3.492200 -8.456076 -5.021536 -0.179459 -70.688347 -18.733689 23.753452 18.175267 -29.892277 -7.049400 -0.938940 -2.552821 -5.809624 15.965220 41.270530 11.988200 -7.125000 0.000000 0.000000 -33.603200 72.354500 -22.544700 13.202753 3.739169 -1.810925 71.098399 -6.235433 5.739566 -6.632406 12.500617 -1.858974 0.248987 -3.514778 13.618871 -22.525760 30.593202 -13.726500 7.125000 0.000000 0.000000 4.890200 6.182800 5.407300 
5.077546 17.399527 1.798131 138.796957 -82.033299 -133.166303 -8.127499 -2.631847 2.842199 -22.459667 2.752125 0.929231 0.492340 7.162924 18.319347 3.764596 -11.182188 2.769655 6.391300 14.797100 46.532500 7.579647 4.331545 -2.502077 7.077615 7.058001 -30.478483 -0.529545 -7.507761 20.014121 1.626835 -8.527755 1.751409 -0.076500 -1.783900 4.908800 -6.663811 -5.093299 2.208951 -0.752143 -7.195109 -2.023508 3.745219 -3.542111 3.004766 -9.137990 -4.232708 -1.016492 7.079549 -7.373557 -16.791193 2.093200 -4.609900 -3.793300 -8.484580 -5.025306 -0.176798 -70.659278 -18.899228 24.073682 18.322060 -30.034204 -7.121326 -0.974510 -2.541027 -5.737940 16.769807 41.310864 12.595000 -7.125000 0.000000 0.000000 -32.679700 72.658500 -22.095600 13.172032 3.721257 -1.816897 71.216405 -6.375790 4.642974 -6.482140 12.299239 -1.824623 0.175793 -3.541769 14.606035 -22.412675 30.749928 -13.713900 7.125000 0.000000 0.000000 4.986900 6.340400 5.527000 
4.906447 17.369785 1.768498 140.815597 -82.318828 -135.214055 -8.052003 -2.619435 2.849343 -22.002173 3.135637 1.240589 0.555788 7.346477 18.839512 3.779314 -11.239772 2.657228 6.216200 14.634600 45.843200 7.566529 4.308841 -2.491165 7.840040 7.150106 -30.382287 -0.703878 -7.918746 21.203746 1.475344 -8.028893 2.017927 -0.076300 -1.782500 4.904900 -6.298712 -5.014040 1.888923 -0.738190 -7.043378 -1.862857 3.582001 -3.496276 3.531960 -9.221798 -4.385969 -1.304727 7.351649 -7.495954 -16.836904 2.186700 -4.684600 -3.728500 -8.479397 -5.014765 -0.162086 -70.583178 -19.337530 24.319819 18.481261 -30.176717 -7.195464 -1.004152 -2.523957 -5.701438 17.439686 41.178004 13.062600 -7.125000 0.000000 0.000000 -31.523100 72.778200 -21.349500 13.205961 3.730619 -1.766468 71.222293 -5.858988 3.589923 -6.242504 11.943507 -1.763766 0.129021 -3.567394 15.510328 -22.443751 30.594975 -13.696900 7.125000 0.000000 0.000000 4.937900 6.213000 5.462700 
4.733812 17.338507 1.750939 142.100307 -82.726497 -136.519067 -7.978220 -2.591128 2.873749 -21.587206 3.339756 1.596111 0.629474 7.552317 19.429048 3.798075 -11.341818 2.564327 6.083700 14.508900 45.316600 7.525845 4.298941 -2.436328 8.730415 6.618539 -30.482809 -0.896801 -8.347286 22.483717 1.249347 -7.188937 2.034001 -0.111100 -2.148800 5.917100 -5.908573 -5.089896 2.023926 -0.633708 -7.157967 -1.923669 3.632367 -3.538424 3.304218 -9.299795 -4.495406 -1.376134 7.147737 -7.668450 -16.766479 2.120600 -4.760000 -3.683900 -8.459998 -4.996947 -0.183988 -70.866623 -19.020007 24.136099 18.724504 -30.450667 -7.333048 -0.996117 -2.507945 -5.557334 17.487971 41.271622 13.106200 -7.125000 0.000000 0.000000 -31.665600 72.855800 -21.502600 13.223412 3.713980 -1.782826 70.819773 -6.144291 4.696080 -6.217186 11.952516 -1.740000 0.215524 -3.518739 14.615972 -22.356133 30.016193 -13.435600 7.125000 0.000000 0.000000 4.870000 5.551000 5.336800 
4.558542 17.305033 1.737000 140.509617 -82.776464 -134.705934 -7.933209 -2.556200 2.891568 -21.740279 3.379158 1.883734 0.652876 7.613071 19.607821 3.758030 -11.270655 2.801095 6.037300 14.464400 45.131200 7.450317 4.339003 -2.407823 9.081137 5.879637 -30.915349 -1.112348 -8.779216 23.858252 0.935408 -5.886965 1.334329 -0.095100 -1.988800 5.474700 -5.977865 -5.134784 1.767806 -0.618149 -7.214299 -2.015455 3.651993 -3.555137 3.210010 -9.189239 -4.566833 -1.257289 6.987944 -7.814089 -16.689076 2.044100 -4.829700 -3.695800 -8.445352 -4.969211 -0.188597 -71.025759 -18.784920 24.153193 18.846550 -30.596799 -7.399817 -0.987941 -2.498002 -5.526424 17.457257 41.243945 13.068900 -7.125000 0.000000 0.000000 -31.641200 72.815300 -21.458400 13.204003 3.665873 -1.846909 70.480533 -6.958487 7.685503 -6.595390 12.546755 -1.799177 0.419743 -3.360828 11.832785 -22.082051 29.020204 -12.874300 7.125000 0.000000 0.000000 4.837100 4.319700 5.205700 
